# xmcd
#
# Track frame offsets:
#	150
#	15717
#	34533
#	50835
#	69445
#	84255
#	97474
#	112882
#	126998
#	139222
#	151619
#	163633
#	169531
#	179235
#	186136
#	195208
#	204809
#	223999
#
# Disc length: 3180 seconds
#
# Revision: 0
# Processed by: cddbd v1.5.2PL0 Copyright (c) Steve Scherf et al.
# Submitted via: EasyCDDAExtractor 16.0.6.1
#
DISCID=f80c6a12
DTITLE=Συλλογικός δίσκος - Τα ωραιότερα τσιφτετέλια 4
DYEAR=2011
DGENRE=Τσιφτετέλια
TTITLE0=Μενιδιάτης Μιχάλης - Περιφρόνα με γλυκειά μου [Α. Καλδάρας-Γ. Σαμολαδά
TTITLE0=ς]
TTITLE1=Γονίδης Σταμάτης - Έχω πετάξει μαζί σου [Σταμάτης Γονίδης]
TTITLE2=Χριστοδουλόπουλος Μάκης - Το προσκλητήριο [Α. Μέξας-Ν. Βαξαβανέλης]
TTITLE3=Μαριώ - Μισιρλού [Νίκος Ρουμπάνης]
TTITLE4=Πανταζής Λευτέρης - Όλα τα λεφτά λουλούδια [Αβέτ Κιζιριάν-Δ. Μυλωνάς]
TTITLE5=Αγγελόπουλος Μανώλης - Γαρύφαλλο στ' αυτί [Μ. Χατζιδάκις-Α. Σακελλάριο
TTITLE5=ς]
TTITLE6=Κωστόπουλος Χάρης - Βρείτε μου κάποια [Χ. Κωστόπουλος-ιδίου κ Μ. Καντι
TTITLE6=ώτη]
TTITLE7=Μπέλλου Σωτηρία - Είδα κι έπαθα κυρά μου[Σ.Χρυσίνης/Σ.Παντελίδης-Χ.Κολ
TTITLE7=οκοτρώνης]
TTITLE8=Μόραλη Αθηνά - Παίξε Χρήστο επειγόντως [Χ. Νικολόπουλος-Μ. Ρασούλης]
TTITLE9=Άνευ ερμηνευτού - Το τσιφτετέλι του Μπουρνέλη [οργανικό, Λ. Μπουρνέλης
TTITLE9=]
TTITLE10=Μοσχολιού Βίκυ - Ναύτης βγήκε στη στεριά [Γ. Σπανός-Μ. Ελευθερίου]
TTITLE11=Μοναχός Κώστας-Ρούσσου Μαρία - Είσαι το άστρο της αυγής [Σταύρος Κάξο
TTITLE11=ς]
TTITLE12=Μοναχός Κώστας-Ρούσσου Μαρία - Έγιναν γκρίζα τα μαλλιά μου [Κ. Βίρβος
TTITLE12=Σ. Ζαγοραίος]
TTITLE13=Μοναχός Κώστας-Ρούσσου Μαρία - Τι έχω πάθει [Κ. Πίτσος-Σ. Βασιλάκου]
TTITLE14=Μοναχός Κώστας-Ρούσσου Μαρία - Δε θέλω πια ν' αγαπώ [Γ. Κόρος-Λ. Τσώλ
TTITLE14=ης]
TTITLE15=Μοναχός Κώστας-Ρούσσου Μαρία - Εμείς οι δυό μαζί θα ζούμε [Θ. Χάρος-Λ
TTITLE15=Τσώλης]
TTITLE16=Μοναχός Κώστας-Ρούσσου Μαρία - Πώς τρελλαίνεται ένας άνδρας [Κώστας Κ
TTITLE16=ατσίγρας]
TTITLE17=Άνευ ερμηνευτού - Τσιφτετέλι χαρέμικο [οργανικό, Γ. Κόρος]
EXTD=
EXTT0=
EXTT1=
EXTT2=
EXTT3=
EXTT4=
EXTT5=
EXTT6=
EXTT7=
EXTT8=
EXTT9=
EXTT10=
EXTT11=
EXTT12=
EXTT13=
EXTT14=
EXTT15=
EXTT16=
EXTT17=
PLAYORDER=
